<svg width="123" height="168" viewBox="0 0 123 168" fill="none" xmlns="http://www.w3.org/2000/svg">
<path d="M15.7765 3.89477C-28.5643 16.8207 -54.0328 63.2445 -41.1063 107.587C-28.1799 151.929 18.2444 177.396 62.5858 164.47C106.928 151.544 132.395 105.12 119.469 60.7777C106.543 16.4358 60.119 -9.03113 15.7765 3.89477ZM-41.1234 107.501C-46.3351 89.5519 -45.2574 71.2691 -39.1892 55.0082C-37.6666 54.7844 -36.1323 54.6515 -34.5846 54.5967C-29.391 54.4144 -24.2314 54.9662 -19.0643 55.3394C-19.0026 55.3437 -18.9484 55.4431 -18.8852 55.5027C-18.8437 55.8514 -19.0074 56.1603 -19.1132 56.4761C-20.3775 60.2667 -21.6359 64.0563 -22.6423 67.9304C-23.7513 72.2006 -26.4271 75.2836 -30.3198 77.315C-31.2613 77.8057 -32.2497 78.1954 -33.2534 78.5559C-37.9659 80.2449 -40.8395 84.6331 -40.5976 89.6428C-40.4779 92.1113 -39.9064 93.1325 -36.8521 94.0438C-36.2779 94.2144 -35.6745 94.1884 -35.078 94.1602C-33.7181 94.0927 -32.3613 94.1336 -31.0051 94.2559C-24.9656 94.7987 -19.5497 97.0173 -14.5911 100.419C-13.3348 101.281 -11.9897 101.649 -10.5064 101.582C-9.74457 101.548 -8.98539 101.452 -8.2331 101.289C-5.86143 100.772 -3.561 99.9966 -1.22335 99.3587C0.50024 98.8876 2.2318 98.449 4.04046 98.4836C7.09158 98.5415 8.87791 99.9669 9.56798 102.914C9.67484 103.367 9.7429 103.832 9.79872 104.295C10.0316 106.242 9.98639 108.197 9.91833 110.151C9.79765 113.591 9.48292 117.02 9.47654 120.466C9.47229 122.663 9.82796 124.781 10.6419 126.82C11.4261 128.785 12.5394 130.51 14.1917 131.877C15.1354 132.657 16.1311 132.838 17.2822 132.464C18.9978 131.905 20.3673 130.863 21.488 129.485C22.9782 127.654 24.7231 126.117 26.7093 124.852C26.9225 124.717 27.1049 124.386 27.4632 124.583C27.4632 125.037 27.2176 125.4 27.0575 125.786C24.7582 131.325 22.429 136.85 20.1557 142.398C18.9643 145.309 17.9972 148.318 16.7069 151.182C14.8307 155.346 12.4394 159.061 9.64135 162.416C-14.1099 153.426 -33.4958 133.769 -41.1234 107.501ZM62.4997 164.486C45.6215 169.387 28.4504 168.723 12.9402 163.583C13.7169 162.661 14.4682 161.71 15.1923 160.728C18.4374 156.32 20.9261 151.483 23.2892 146.574C26.3148 140.29 29.0246 133.859 32.0996 127.597C33.0981 125.565 34.3203 123.684 35.6335 121.845C38.7511 117.484 42.7108 113.799 45.663 109.306C46.301 108.335 47.3042 107.982 48.4462 108.108C49.4169 108.214 50.3872 108.341 51.3489 108.513C57.2172 109.555 63.1127 110.275 69.091 110.162C70.9204 110.128 72.7551 110.269 74.5149 110.808C76.0072 111.265 77.5064 111.329 79.0482 111.295C83.2503 111.201 87.4551 110.998 91.6572 111.321C92.4653 111.383 93.2692 111.333 94.0693 111.18C98.7483 110.286 102.333 107.753 104.991 103.857C105.987 102.399 106.61 100.786 106.894 99.0296C107.003 98.3592 106.725 97.6935 106.965 97.0401C106.466 95.3245 105.968 93.6089 105.47 91.8938C105.007 91.704 105.151 91.1245 104.75 90.8183C104.605 91.4951 104.55 92.1878 104.095 92.7253C103.577 93.3346 103.295 93.3239 102.839 92.6748C102.813 92.6402 102.799 92.5988 102.775 92.5642C101.529 90.7385 100.673 90.5812 98.9015 91.8603C98.4198 92.2085 97.944 92.5663 97.4852 92.9438C95.8211 94.3107 93.9093 94.8588 91.7827 94.6828C90.5977 94.5845 89.4169 94.4282 88.2313 94.3367C85.2557 94.106 82.4656 94.7094 79.9813 96.399C77.5033 98.0848 76.13 100.417 76.1167 103.475C76.1114 104.537 76.0774 105.599 76.054 106.661C76.0465 106.952 76.1204 107.261 75.7977 107.57C74.3187 105.218 73.2341 102.79 73.5 99.9429C73.6967 97.8392 74.7233 96.1688 76.2799 94.8019C77.7047 93.5515 79.3582 92.6865 81.1317 92.0523C83.6629 91.1463 86.2882 90.611 88.932 90.1628C92.4547 89.5657 95.97 88.9426 99.3688 87.7932C100.626 87.3674 101.902 87.0266 103.338 87.6135C103.315 86.7018 102.775 86.2733 102.182 85.9032C101.098 85.2291 100.022 84.539 98.9036 83.9298C96.7525 82.7585 94.8769 81.2593 93.182 79.4969C89.9996 76.1895 86.9128 72.7923 83.6448 69.5652C81.5236 67.4711 80.4241 64.9022 80.7128 61.8447C80.7856 61.0733 80.6288 60.322 80.423 59.5788C79.8653 57.5692 80.128 55.7329 81.4635 54.0539C82.5751 52.6584 83.6033 51.1947 84.6449 49.7444C85.2647 48.881 85.8299 47.9783 86.2664 47.0038C87.4737 44.302 86.865 42.2227 84.3227 40.6799C80.2853 38.2322 76.2108 38.2051 72.1347 40.6177C71.1862 41.1791 70.3494 41.8963 69.4509 42.6214C69.0639 42.0659 69.107 41.5012 69.015 40.9802C68.5982 38.6234 67.47 36.6867 65.6438 35.1454C64.3019 34.0146 62.7325 33.6037 61.018 33.6834C60.4236 33.7111 59.8414 33.8408 59.3853 34.3038C59.5389 34.6973 59.8712 34.6143 60.1275 34.6606C61.3173 34.8764 62.2987 35.4665 62.9776 36.4421C64.2903 38.33 65.0702 40.4284 65.118 42.7474C65.1441 43.9676 64.7517 45.0845 64.1058 46.1223C63.8065 46.6019 63.4822 46.8039 62.9707 46.445C61.17 45.176 59.2604 44.0191 58.2401 41.9298C57.0886 39.5708 55.3533 37.8855 52.8189 37.0227C51.367 36.5277 50.0794 36.6005 48.8683 37.5772C48.0751 38.2173 47.2627 38.8345 46.4631 39.4666C45.4588 40.2583 44.4227 40.9888 43.2376 41.4933C42.8102 41.6751 42.4072 41.9282 42.0191 42.1855C40.6044 43.1212 39.9515 44.403 40.3072 46.1122C40.7352 48.1702 40.4268 50.0815 39.2173 51.8279C38.4597 52.921 38.3183 52.9619 37.188 52.324C35.7483 51.5111 34.8445 50.2511 34.2565 48.7497C33.7393 47.4323 33.5144 46.0474 33.4484 44.6385C33.3745 43.0638 33.852 41.7075 35.0641 40.6517C35.1901 40.5416 35.3448 40.4534 35.3687 40.186C34.8951 39.9047 34.4314 40.0982 33.9902 40.2987C32.4989 40.9749 31.3772 42.0382 30.7514 43.5662C29.8598 45.7401 29.8205 47.9448 30.5621 50.174C30.7355 50.6934 31.0194 51.182 31.0513 51.7482C30.686 52.0039 30.3 51.829 29.9353 51.812C28.476 51.7455 27.0517 51.8965 25.6598 52.3553C25.1696 52.5164 24.7109 52.7301 24.2845 53.0135C23.0457 53.8376 22.7315 54.7966 23.2632 56.1949C23.5354 56.9094 23.8485 57.6085 24.1388 58.3161C24.3419 58.8106 24.5965 59.2906 24.654 59.8255C24.5551 59.8595 24.4907 59.8957 24.479 59.884C22.8868 58.1625 20.8888 57.742 18.6006 57.693C6.88955 57.4432 -4.69128 55.8966 -16.2041 53.8434C-21.9496 52.8189 -27.7009 52.023 -33.5522 52.1459C-35.0897 52.1778 -36.6219 52.2559 -38.1504 52.3702C-28.7897 29.6594 -9.56115 11.2613 15.8627 3.87882C60.2131 -8.99923 106.607 16.5129 119.486 60.8638C132.363 105.214 106.851 151.607 62.4997 164.486ZM27.2016 57.6192C27.1665 57.4963 27.1309 57.3741 27.0958 57.2523C26.5801 55.4761 26.6827 55.3208 28.5424 54.9386C29.2772 54.7881 29.9842 54.9046 30.6679 55.1443C32.4484 55.7674 34.2932 56.0141 36.1614 56.1311C38.8946 56.3023 41.5108 57.0173 44.1042 57.8302C45.1207 58.1487 46.0782 58.6054 46.9193 59.2795C47.9352 60.0934 48.4095 61.1296 48.1139 62.4215C47.4387 65.3769 45.7863 67.6603 43.2408 69.2898C42.7421 69.6094 42.1701 69.7885 41.5667 69.8619C40.7447 69.9613 40.0408 69.7651 39.531 69.0921C38.0089 67.0739 35.8903 65.8129 33.7839 64.5374C33.0215 64.076 32.2416 63.6448 31.467 63.2046C29.2553 61.9451 27.7226 60.1695 27.2016 57.6192ZM77.7111 71.1293C77.7334 71.165 77.7574 71.2011 77.7739 71.2399C77.994 71.7498 78.28 72.3936 77.8669 72.7764C77.423 73.1873 76.7132 73.3426 76.0673 73.0486C74.82 72.4808 73.6547 71.7997 72.7849 70.6934C71.5222 69.0852 70.3925 67.3871 69.4355 65.5827C66.2621 59.5979 61.3811 55.6802 54.9615 53.6728C51.9885 52.7424 49.1314 51.5531 46.2956 50.2878C45.4588 49.9145 44.8257 49.3903 44.7151 48.4828C44.6571 48.0251 46.0995 47.4323 47.0001 47.4764C48.4504 47.5461 49.8784 47.7258 51.2341 48.2957C51.4691 48.394 51.7142 48.4695 51.9609 48.5328C53.5122 48.931 54.3113 48.4329 54.6191 46.8555C54.7334 46.2738 54.7291 45.6635 55.0375 45.1324C55.2422 44.7772 55.298 44.3269 55.6468 44.084C55.8786 44.0617 55.9892 44.2004 56.1029 44.3211C59.4252 47.8071 63.3753 50.4457 67.528 52.812C68.3775 53.2963 69.2138 53.8126 70.0932 54.2363C71.51 54.9195 72.4255 56.0519 73.1023 57.4129C73.8838 58.9839 74.3958 60.6485 74.7451 62.363C75.3666 65.4099 76.0146 68.4461 77.7111 71.1293ZM80.1365 100.312C80.1248 99.0545 80.6299 98.6367 81.8691 98.7914C82.9314 98.9248 83.933 99.2513 84.8219 99.8637C85.0919 100.05 85.4269 100.246 85.3615 100.649C85.3046 100.998 84.9516 101.032 84.6863 101.135C83.2636 101.683 81.8883 102.305 80.8585 103.739C80.3374 102.496 80.1471 101.412 80.1365 100.312Z" fill="#F7F6F2"/>
</svg>
